<svg width="198" height="40" viewBox="0 0 198 40" fill="none" xmlns="http://www.w3.org/2000/svg">
<rect x="8.05615" width="89.2413" height="39.0431" rx="4.67012" fill="#0A2B40"/>
<path d="M-2.84438e-07 9.60586L12.0848 3.97048L12.0848 15.2412L-2.84438e-07 9.60586Z" fill="#0A2B40"/>
<rect x="189.419" y="39.3804" width="89.2413" height="39.0431" rx="4.67012" transform="rotate(180 189.419 39.3804)" fill="#D1EDFF"/>
<path d="M197.475 29.7745L185.39 35.4099L185.39 24.1391L197.475 29.7745Z" fill="#D1EDFF"/>
<path d="M43.3161 22.368C43.3161 25.248 41.3961 27.288 37.7481 27.288C36.5961 27.288 34.7721 27.048 33.7161 26.568L33.0921 27.12H32.8281L32.2281 21.696L32.6361 21.576L33.5721 23.352C34.5081 25.128 35.4921 26.64 37.7001 26.64C39.5721 26.64 40.3641 25.368 40.3641 24.072C40.3641 21.888 37.8441 20.976 35.6121 19.704C33.8601 18.72 32.3241 17.496 32.3241 15.264C32.3241 13.056 34.1241 10.56 37.7721 10.56C39.1161 10.56 40.0281 10.8 41.1321 11.304L41.9001 10.728H42.1881L42.4761 15.384H41.9721L41.4201 14.328C40.0761 11.784 38.9001 11.208 37.7001 11.208C36.0681 11.208 35.1321 12.336 35.1321 13.488C35.1321 15.264 36.5241 16.104 39.2361 17.448C41.2761 18.48 43.3161 19.704 43.3161 22.368ZM51.0268 25.704V21.72C49.6348 22.008 47.9068 22.344 47.9068 24.048C47.9068 24.552 48.0748 25.176 48.3868 25.536C48.7228 25.92 49.1548 26.064 49.5868 26.064C50.1388 26.064 50.6668 25.848 51.0268 25.704ZM51.0988 26.232C50.0908 26.856 49.0588 27.288 47.8348 27.288C47.2348 27.288 46.6348 27.168 46.1308 26.904C45.2908 26.448 44.7628 25.512 44.7628 24.6C44.7628 23.544 45.4108 22.464 46.8988 21.984C47.9548 21.648 49.4188 21.384 51.0268 21.096V20.112C51.0268 19.008 50.9788 18.096 50.8108 17.424C50.6188 16.584 50.1868 16.272 49.6348 16.272C48.7948 16.272 48.4348 17.04 48.4348 18.384V18.816L45.2908 19.296C45.2668 19.2 45.2428 19.032 45.2428 18.912C45.2428 17.664 46.1788 16.56 48.1228 15.888C48.8188 15.648 49.8028 15.48 50.7388 15.48C51.4348 15.48 52.0828 15.576 52.6108 15.792C53.1148 16.008 53.5468 16.368 53.8588 16.896C54.1948 17.52 54.3148 18.192 54.3148 19.848V25.08C54.3148 25.656 54.4588 25.896 54.7708 25.896C54.9628 25.896 55.2508 25.776 55.5868 25.536L55.8508 25.872C55.1068 26.616 54.0268 27.24 52.9228 27.24C52.2268 27.24 51.4348 26.904 51.0988 26.232ZM64.2683 12.6L63.8123 12.168C63.2123 11.616 62.6603 11.112 62.0603 11.112C61.4363 11.112 61.0763 11.688 61.0763 13.08V15.816H64.0523V16.752H61.0763V25.248C61.0763 26.304 61.3403 26.328 62.3963 26.568L62.7083 26.64V27H56.6603V26.64L56.9003 26.592C57.4763 26.472 57.6923 26.232 57.6923 25.44V16.752H56.1323V16.152L57.7163 15.84L57.7403 15.384C57.7883 13.992 57.9803 13.128 58.4603 12.408C59.5403 10.824 61.7483 9.984 64.5323 9.936V12.48L64.2683 12.6ZM74.0067 25.08C72.6627 26.592 70.8867 27.288 69.1827 27.288C65.8947 27.288 63.7107 25.32 63.7107 21.864C63.7107 18.552 65.9907 15.432 69.1827 15.432C71.6307 15.432 73.1667 16.728 73.5987 19.08L73.8627 19.296V19.56L66.8787 20.712C66.9507 23.616 68.5347 25.704 70.8867 25.704C71.7507 25.704 72.7347 25.416 73.7667 24.768L74.0067 25.08ZM70.4067 19.44C70.4067 16.872 69.6147 16.104 68.8227 16.104C67.9587 16.104 66.9987 16.8 66.8787 20.064L70.4067 19.44Z" fill="#D1EDFF"/>
<path d="M127.393 18.672C127.393 21.912 126.025 24.408 123.673 25.8C122.353 26.568 120.721 27 118.273 27H110.833V26.64L111.577 26.472C112.393 26.28 112.513 26.136 112.513 25.104V13.08C112.513 11.616 112.489 11.544 111.361 11.328L110.785 11.208V10.848H114.049C115.633 10.848 117.193 10.656 118.777 10.656C123.937 10.656 127.393 13.32 127.393 18.672ZM123.457 19.008C123.457 14.088 121.465 11.4 118.129 11.4C117.505 11.4 117.001 11.472 116.257 11.52V25.704C116.257 26.064 116.449 26.28 116.785 26.28H117.601C119.521 26.28 120.721 25.848 121.609 25.008C122.881 23.808 123.457 21.768 123.457 19.008ZM133.504 12.624C133.504 13.824 132.616 14.424 131.704 14.424C130.816 14.424 129.904 13.824 129.904 12.624C129.904 11.424 130.792 10.8 131.704 10.8C132.592 10.8 133.504 11.424 133.504 12.624ZM129.952 25.44V19.008C129.952 18.336 129.736 18.072 129.376 17.736L128.776 17.16V16.896L133.36 15.24L133.528 15.408C133.456 15.888 133.336 16.8 133.336 18.36V25.248C133.336 26.376 133.576 26.424 134.392 26.592L134.632 26.64V27H128.92V26.64L129.16 26.592C129.736 26.472 129.952 26.232 129.952 25.44ZM141.835 25.704V21.72C140.443 22.008 138.715 22.344 138.715 24.048C138.715 24.552 138.883 25.176 139.195 25.536C139.531 25.92 139.963 26.064 140.395 26.064C140.947 26.064 141.475 25.848 141.835 25.704ZM141.907 26.232C140.899 26.856 139.867 27.288 138.643 27.288C138.043 27.288 137.443 27.168 136.939 26.904C136.099 26.448 135.571 25.512 135.571 24.6C135.571 23.544 136.219 22.464 137.707 21.984C138.763 21.648 140.227 21.384 141.835 21.096V20.112C141.835 19.008 141.787 18.096 141.619 17.424C141.427 16.584 140.995 16.272 140.443 16.272C139.603 16.272 139.243 17.04 139.243 18.384V18.816L136.099 19.296C136.075 19.2 136.051 19.032 136.051 18.912C136.051 17.664 136.987 16.56 138.931 15.888C139.627 15.648 140.611 15.48 141.547 15.48C142.243 15.48 142.891 15.576 143.419 15.792C143.923 16.008 144.355 16.368 144.667 16.896C145.003 17.52 145.123 18.192 145.123 19.848V25.08C145.123 25.656 145.267 25.896 145.579 25.896C145.771 25.896 146.059 25.776 146.395 25.536L146.659 25.872C145.915 26.616 144.835 27.24 143.731 27.24C143.035 27.24 142.243 26.904 141.907 26.232ZM151.651 13.056V25.248C151.651 26.376 151.891 26.424 152.707 26.592L152.947 26.64V27H147.235V26.64L147.475 26.592C148.051 26.472 148.267 26.232 148.267 25.44V14.136C148.267 13.704 148.219 13.416 148.123 13.152C148.027 12.912 147.883 12.672 147.499 12.312L147.091 11.952V11.688L151.579 9.936L151.843 10.128C151.771 10.632 151.651 11.52 151.651 13.056ZM165.862 21.288C165.862 24.888 163.246 27.288 159.718 27.288C156.214 27.288 153.886 25.032 153.886 21.504C153.886 17.904 156.502 15.48 160.03 15.48C163.534 15.48 165.862 17.76 165.862 21.288ZM162.286 22.464C162.286 20.664 162.07 16.08 159.526 16.08C157.654 16.08 157.462 18.984 157.462 20.352C157.462 22.152 157.678 26.688 160.222 26.688C162.094 26.688 162.286 23.832 162.286 22.464ZM178.323 27.36C178.323 28.56 177.435 29.832 175.779 30.672C174.531 31.32 172.851 31.656 171.171 31.656C168.411 31.656 166.971 30.888 166.971 29.616C166.971 28.272 168.891 27.48 170.091 27.24V27.192C168.843 26.904 168.027 26.424 168.027 25.44C168.027 24.672 168.867 23.808 170.595 23.184C169.947 23.064 169.227 22.776 168.723 22.368C167.859 21.696 167.283 20.64 167.283 19.56C167.283 17.856 168.435 16.488 170.067 15.84C170.739 15.576 171.627 15.432 172.515 15.432C173.523 15.432 174.531 15.6 175.227 15.936L178.395 15.744V16.752H176.403C177.075 17.424 177.483 18.528 177.483 19.296C177.483 21.744 175.227 23.112 172.635 23.28C172.419 23.304 171.699 23.304 171.507 23.328C170.163 23.856 170.115 24.192 170.115 24.36C170.115 24.576 170.259 24.672 170.595 24.816C170.811 24.888 171.723 24.936 172.395 24.936H174.003C174.963 24.936 175.923 25.008 176.379 25.152C177.891 25.536 178.323 26.448 178.323 27.36ZM174.123 19.656C174.123 17.832 173.451 15.984 172.107 15.984C171.123 15.984 170.547 16.944 170.547 18.84C170.547 20.616 171.315 22.68 172.611 22.68C173.499 22.68 174.123 21.864 174.123 19.656ZM175.731 28.92C175.731 28.488 175.491 28.008 175.059 27.792C174.723 27.6 174.099 27.504 173.115 27.504C172.275 27.504 171.411 27.528 171.099 27.576C170.163 27.624 169.323 28.08 169.323 29.184C169.323 30.48 170.355 30.96 171.939 30.96C173.571 30.96 175.731 30.504 175.731 28.92Z" fill="#0A2B40"/>
</svg>
